<svg xmlns="http://www.w3.org/2000/svg" version="1.1" id="wood_rabbit_icon" viewBox="-10 -10 120 120">
  <g>
    <rect x="-10" y="-10" width="120" height="120" fill="black" stroke="none"/>
    <path d="M12.532 82.75c-.32-.127-.882-.472-1.246-.765l-.664-.534.23-.714c.321-.996 1.386-2.177 3.284-3.641.883-.682 1.731-1.36 1.884-1.507.153-.146.738-1.351 1.3-2.677 1.197-2.824 2.231-4.769 3.948-7.42.98-1.514 1.562-2.425 1.944-3.179.163-.322.97-1.25 1.075-1.515-.632-.938-.067-.532-1.534.56-1.852 1.317-6.606 8.108-9.268 9.643-1.698.978-3.915 2.458-4.662 1.722-.319-.315-1.173-.961-1.331-1.575-.22-.849 1.265-2.364 1.222-2.652-.03-.21 1.885-.494 3.473-2.069 1.635-1.62 4.222-3.45 5.685-5.992 2.817-4.894 6.496-7.62 6.486-7.84-.018-.406-.932-3.2-.933-3.22-.005-.09-4.942-2.522-5.104-2.513-.376.02-1.337-.517-1.707-.953-1.238-1.458-1.298-2.643-.208-4.086.2-.263.49-.939.648-1.501.527-1.887 1.34-2.956 3.43-4.511 1.347-1.002.516-5.728.645-9.52.187-5.51.814-6.815 1.404-8.413.827-2.238 3.025 5.258 3.514 5.973.745 1.09 1.171 4.058.864 6.008-.29 1.839-.724 3.053-1.28 3.589l-.515.494.351.264c.42.316.563.317 1.199.01.36-.172.641-.513 1.08-1.306.611-1.106 2.483-5.626 3.186-6.546.821-1.076 2.605-3.46 2.943-3.658.193-.113 3.59-5.311 3.636-5.018l1.34 4.263c-.232 5.6-2.61 9.611-5.79 12.931l-3.27 2.135.908.896c.5.493 1.227 1.377 1.616 1.966.388.588.786 1.066.884 1.06.098-.006.798-.28 1.556-.61 1.29-.562 1.48-.701 2.981-2.191 1.386-1.376 1.67-1.74 2.097-2.689.997-2.219 2.796-4.664 5.342-7.264 2.024-2.066 3.553-3.192 6.852-5.044l2.686-1.508.501-.873c.276-.48.646-1.407.822-2.06.411-1.522.586-1.724 1.56-1.802.854-.178 1.325-.124 1.721.581 3.541 1.794 3.997 5.809 2.996 6.458 2.311 1.373 1.737 1.872 3.259 4.142.091.136 2.448.891 4.145.104.841-.39.576-2.458 1.657-2.604 2.306-.31 5.116.029 7.624.059 4.197.05 7.853-1.404 8.263-.956.43.472 1.006 2.476-.376 3.182-1.546.79-5.153.803-7.93.937-1.32.064-3.902-.453-4.811.068-2.595 1.487-3.895 4.199-3.708 4.162.361-.07.96.029 2.053.34l1.543.438 1.083-1.03c.75-1.014 1.45-.733 2.452-.547 3.967.795 7.105 2.064 11.132 2.229 2.067.075 5.323.27 5.782.346.706.117 1.139 1.357.943 2.7-.054.367-.184.494-.782.767-1.33.605-1.968.75-3.69.833-2.336.113-6.505-.469-8.33-1.164-.53-.202-.753-.211-1.46-.06-.64.138-1.125.14-2.08.01-1.229-.169-1.25-.167-1.847.174-1.085.622-2.77 1.928-4.715 3.657-3.035 2.697-4.551 3.343-6.206 2.645l-.645-.272-.7.517c-1.56 1.151-2.989 1.751-4.937 2.072-1.236.204-2.113.21-5.106.04l-.716-.039-.681 1.083c-1.06 1.686-3.474 4.65-5.068 6.224-3.942 3.892-7.466 6.192-12.37 8.074-4.2 1.612-5.933 2.846-9.297 6.623-1.113 1.25-2.634 2.894-3.38 3.653-1.232 1.254-1.38 1.463-1.615 2.295-.145.51-.588 1.422-1 2.057-.406.628-.735 1.225-.73 1.326.023.425-.66 1.643-1.239 2.208-1.12 1.096-4.129 2.68-5.183 2.728-.292.015-.794-.079-1.115-.207z" fill="white"/>
  </g>
</svg>
